<?xml version="1.0" encoding="UTF-8" standalone="no"?>
<!DOCTYPE svg PUBLIC "-//W3C//DTD SVG 1.1//EN" "http://www.w3.org/Graphics/SVG/1.1/DTD/svg11.dtd">
<svg version="1.1" xmlns="http://www.w3.org/2000/svg" xmlns:xlink="http://www.w3.org/1999/xlink" preserveAspectRatio="xMidYMid meet" viewBox="0 0 640 640" width="640" height="640"><defs><path d="M106.67 213.33C106.67 248.65 115.5 283.66 132.28 314.71C149.88 346.55 290.73 601.28 308.33 633.13C310.68 637.37 315.14 640 320 640C324.86 640 329.32 637.37 331.67 633.13C349.28 601.27 490.17 346.46 507.79 314.61C524.51 283.66 533.33 248.65 533.33 213.33C533.33 95.7 437.63 0 320 0C202.37 0 106.67 95.7 106.67 213.33ZM213.33 213.33C213.33 154.52 261.19 106.67 320 106.67C378.82 106.67 426.67 154.52 426.67 213.33C426.67 272.15 378.82 320 320 320C261.19 320 213.33 272.15 213.33 213.33Z" id="canWJnVfhJ"></path></defs><g><g><g><use xlink:href="#canWJnVfhJ" opacity="1" fill="#999999" fill-opacity="1"></use><g><use xlink:href="#canWJnVfhJ" opacity="1" fill-opacity="0" stroke="#000000" stroke-width="1" stroke-opacity="0"></use></g></g></g></g></svg>