<?xml version="1.0" encoding="UTF-8" standalone="no"?>
<!DOCTYPE svg PUBLIC "-//W3C//DTD SVG 1.1//EN" "http://www.w3.org/Graphics/SVG/1.1/DTD/svg11.dtd">
<svg version="1.1" xmlns="http://www.w3.org/2000/svg" xmlns:xlink="http://www.w3.org/1999/xlink" preserveAspectRatio="xMidYMid meet" viewBox="0 0 640 640" width="640" height="640"><defs><path d="M300.63 365.01C306.71 370.52 313.23 373.32 320 373.32C326.76 373.32 333.27 370.55 339.34 365.07C384.68 324.22 538.8 193.33 626.64 118.95C632.11 114.32 632.94 106.2 628.52 100.55C618.28 87.49 603.02 80 586.67 80C533.33 80 106.67 80 53.33 80C36.98 80 21.72 87.49 11.49 100.55C7.06 106.2 7.89 114.32 13.36 118.95C101.2 193.33 255.33 324.21 300.63 365.01Z" id="eLS5PSvLZ"></path><path d="M618.05 161.19C520.64 243.76 396.32 349.61 357.2 384.86C335.25 404.67 304.78 404.67 282.77 384.83C241.08 347.26 101.47 228.58 21.95 161.18C17.99 157.82 12.42 157.08 7.73 159.26C3.02 161.45 0 166.16 0 171.35C0 204.89 0 473.14 0 506.67C0 536.08 23.92 560 53.33 560C106.67 560 533.33 560 586.67 560C616.08 560 640 536.08 640 506.67C640 473.14 640 204.89 640 171.35C640 166.16 636.98 161.43 632.27 159.26C627.54 157.06 621.98 157.83 618.05 161.19Z" id="d2s6aSvmcz"></path></defs><g><g><g><use xlink:href="#eLS5PSvLZ" opacity="1" fill="#999999" fill-opacity="1"></use><g><use xlink:href="#eLS5PSvLZ" opacity="1" fill-opacity="0" stroke="#000000" stroke-width="1" stroke-opacity="0"></use></g></g><g><use xlink:href="#d2s6aSvmcz" opacity="1" fill="#999999" fill-opacity="1"></use><g><use xlink:href="#d2s6aSvmcz" opacity="1" fill-opacity="0" stroke="#000000" stroke-width="1" stroke-opacity="0"></use></g></g></g></g></svg>