<?xml version="1.0" encoding="UTF-8" standalone="no"?>
<!DOCTYPE svg PUBLIC "-//W3C//DTD SVG 1.1//EN" "http://www.w3.org/Graphics/SVG/1.1/DTD/svg11.dtd">
<svg version="1.1" xmlns="http://www.w3.org/2000/svg" xmlns:xlink="http://www.w3.org/1999/xlink" preserveAspectRatio="xMidYMid meet" viewBox="0 0 640 640" width="640" height="640"><defs><path d="M533.27 380.38C501.37 348.48 447.14 361.24 434.38 402.71C424.81 431.42 392.92 447.37 364.21 440.99C300.41 425.04 214.29 342.1 198.34 275.12C188.77 246.41 207.91 214.51 236.62 204.94C278.08 192.18 290.84 137.96 258.95 106.06C250.01 97.13 178.56 25.68 169.63 16.75C144.11 -5.58 105.84 -5.58 83.51 16.75C77.45 22.81 28.96 71.29 22.9 77.35C-37.7 141.15 29.28 310.21 179.2 460.13C329.12 610.05 498.18 680.22 561.97 616.42C568.04 610.36 616.52 561.88 622.58 555.82C644.91 530.3 644.91 492.02 622.58 469.69C604.72 451.83 542.2 389.31 533.27 380.38Z" id="k17sP9700d"></path></defs><g><g><g><use xlink:href="#k17sP9700d" opacity="1" fill="#999999" fill-opacity="1"></use><g><use xlink:href="#k17sP9700d" opacity="1" fill-opacity="0" stroke="#000000" stroke-width="1" stroke-opacity="0"></use></g></g></g></g></svg>