<?xml version="1.0" encoding="UTF-8" standalone="no"?>
<!DOCTYPE svg PUBLIC "-//W3C//DTD SVG 1.1//EN" "http://www.w3.org/Graphics/SVG/1.1/DTD/svg11.dtd">
<svg version="1.1" xmlns="http://www.w3.org/2000/svg" xmlns:xlink="http://www.w3.org/1999/xlink" preserveAspectRatio="xMidYMid meet" viewBox="0 0 640 640" width="640" height="640"><defs><path d="M447.82 178.92C444.78 176.45 441.45 175.98 437.83 177.5C434.22 179.02 432.41 181.78 432.41 185.77C432.41 190.03 432.41 211.34 432.41 249.68C218.78 249.68 100.09 249.68 76.36 249.68C73.69 249.68 71.51 250.54 69.8 252.25C68.09 253.96 67.23 256.15 67.23 258.81C67.23 264.29 67.23 308.11 67.23 313.59C67.23 316.25 68.08 318.44 69.79 320.14C71.51 321.86 73.7 322.71 76.36 322.71C100.09 322.71 218.78 322.71 432.41 322.71C432.41 361.05 432.41 382.36 432.41 386.62C432.41 390.43 434.23 393.18 437.84 394.89C441.45 396.42 444.78 395.84 447.83 393.18C458.78 383.08 546.42 302.28 557.38 292.18C559.28 290.28 560.23 288 560.23 285.33C560.23 282.87 559.27 280.68 557.37 278.78C535.46 258.81 458.77 188.91 447.82 178.92Z" id="k1iGOoFDNz"></path></defs><g><g><g><use xlink:href="#k1iGOoFDNz" opacity="1" fill="#999999" fill-opacity="1"></use><g><use xlink:href="#k1iGOoFDNz" opacity="1" fill-opacity="0" stroke="#000000" stroke-width="1" stroke-opacity="0"></use></g></g></g></g></svg>